<?xml version="1.0" encoding="iso-8859-1"?>
<!-- Generator: Adobe Illustrator 16.0.0, SVG Export Plug-In . SVG Version: 6.00 Build 0)  -->
<!DOCTYPE svg PUBLIC "-//W3C//DTD SVG 1.1//EN" "http://www.w3.org/Graphics/SVG/1.1/DTD/svg11.dtd">
<svg version="1.1" id="Capa_1" xmlns="http://www.w3.org/2000/svg" xmlns:xlink="http://www.w3.org/1999/xlink" x="0px" y="0px"
	 width="231.127px" height="231.128px" viewBox="0 0 231.127 231.128" style="enable-background:new 0 0 231.127 231.128;"
	 xml:space="preserve">
<g>
	<g>
		<path d="M212.686,208.324L105.719,95.554c-2.707-2.586-6.93-2.711-9.785-0.289c-2.855,2.422-3.424,6.609-1.313,9.703
			l94.635,122.968c1.166,1.713,3.008,2.85,5.062,3.127c0.326,0.043,0.654,0.065,0.98,0.065c1.723,0,3.402-0.608,4.731-1.737
			l12.332-10.195c1.582-1.342,2.521-3.291,2.58-5.363C215.006,211.758,214.186,209.757,212.686,208.324z"/>
		<path d="M121.887,81.594c0.635-1.947,0.107-4.085-1.361-5.514l-18.438-17.975l4.352-25.381c0.346-2.018-0.484-4.058-2.143-5.261
			c-1.654-1.204-3.852-1.363-5.664-0.409L75.84,39.037L53.047,27.054c-1.813-0.954-4.01-0.794-5.666,0.409
			c-1.656,1.204-2.486,3.244-2.139,5.261l4.352,25.381L31.155,76.08c-1.467,1.429-1.995,3.567-1.362,5.514
			c0.633,1.949,2.315,3.367,4.343,3.662l25.484,3.703l11.396,23.093c0.906,1.835,2.777,2.998,4.824,2.998s3.916-1.163,4.824-2.998
			L92.06,88.959l25.484-3.703C119.571,84.961,121.254,83.543,121.887,81.594z"/>
		<path d="M69.954,21.635h11.773c0.006,0,0.01,0,0.012,0c0.652,0,1.178-0.527,1.178-1.177c0-0.178-0.039-0.347-0.109-0.498
			l-5.84-19.126C76.818,0.338,76.359,0,75.841,0s-0.977,0.338-1.125,0.834l-5.889,19.28c-0.107,0.357-0.041,0.744,0.182,1.044
			C69.229,21.459,69.581,21.635,69.954,21.635z"/>
		<path d="M33.124,58.902c0.361-0.088,0.662-0.343,0.807-0.687l4.57-10.851c0.002-0.004,0.003-0.008,0.003-0.011
			c0.253-0.6-0.028-1.29-0.627-1.542c-0.165-0.069-0.336-0.099-0.501-0.092l-19.895-2.041c-0.516-0.052-1.005,0.237-1.207,0.715
			c-0.201,0.477-0.064,1.03,0.332,1.361L32.09,58.663C32.378,58.902,32.76,58.99,33.124,58.902z"/>
		<path d="M47.413,96.38c-0.004-0.002-0.006-0.006-0.008-0.008c-0.475-0.447-1.217-0.426-1.666,0.047
			c-0.121,0.129-0.209,0.279-0.262,0.436l-8.898,17.91c-0.232,0.463-0.131,1.023,0.244,1.379c0.377,0.355,0.941,0.422,1.391,0.168
			l17.527-9.962c0.322-0.185,0.541-0.512,0.584-0.883c0.047-0.37-0.086-0.74-0.357-0.996L47.413,96.38z"/>
		<path d="M111.895,47.988l2.869,11.42c0.092,0.361,0.35,0.659,0.693,0.801c0.346,0.143,0.736,0.112,1.055-0.08l17.266-10.409
			c0.443-0.267,0.662-0.792,0.535-1.294c-0.125-0.502-0.565-0.864-1.084-0.89l-19.973-1.003c-0.162-0.031-0.336-0.028-0.508,0.016
			c-0.631,0.158-1.014,0.797-0.855,1.429C111.893,47.98,111.895,47.984,111.895,47.988z"/>
	</g>
</g>
<g>
</g>
<g>
</g>
<g>
</g>
<g>
</g>
<g>
</g>
<g>
</g>
<g>
</g>
<g>
</g>
<g>
</g>
<g>
</g>
<g>
</g>
<g>
</g>
<g>
</g>
<g>
</g>
<g>
</g>
</svg>
